<svg width="24" height="24" viewBox="0 0 24 24" fill="none" xmlns="http://www.w3.org/2000/svg">
<path fill-rule="evenodd" clip-rule="evenodd" d="M4.18548 12.9163L3.33259 13.7692C3.03971 14.0621 2.56483 14.0621 2.27193 13.7693C1.97903 13.4764 1.97902 13.0015 2.2719 12.7086L4.20717 10.7732C4.5977 10.3827 5.23088 10.3826 5.62141 10.7732L7.55682 12.7086C7.84972 13.0015 7.84972 13.4764 7.55682 13.7693C7.26393 14.0621 6.78906 14.0621 6.49616 13.7693L5.703 12.9761C6.18938 16.6312 9.31887 19.451 13.107 19.451C17.2323 19.451 20.5766 16.1067 20.5766 11.9813C20.5766 7.85598 17.2323 4.51172 13.107 4.51172V3.01172C18.0607 3.01172 22.0766 7.02755 22.0766 11.9813C22.0766 16.9351 18.0607 20.951 13.107 20.951C8.4689 20.951 4.65304 17.4307 4.18548 12.9163ZM6.21408 9.01125C6.3425 8.71434 6.49171 8.42205 6.66226 8.13621C6.77992 7.939 6.9051 7.74928 7.03718 7.56718L5.87984 6.72776C5.72273 6.94437 5.57405 7.16975 5.43448 7.40367C5.23217 7.74276 5.05478 8.09015 4.90186 8.44368L6.21408 9.01125ZM7.93171 6.54375C8.26316 6.22791 8.62001 5.94623 8.99682 5.7001L8.21496 4.50313C7.76599 4.7964 7.34061 5.13215 6.94543 5.50872L7.93171 6.54375ZM10.1979 5.06289C10.4075 4.975 10.6207 4.89668 10.837 4.82814C11.0892 4.74823 11.3454 4.6816 11.6046 4.62857L11.3179 3.2279C11.0097 3.29097 10.705 3.3702 10.4051 3.46524C10.1479 3.54676 9.8942 3.63991 9.64489 3.74448L10.1979 5.06289ZM17.7251 9.65736L11.9722 15.4103L9.21375 12.6518L10.2744 11.5911L11.9722 13.2889L16.6644 8.5967L17.7251 9.65736Z" fill="#27AE60"/>
</svg>
